<svg xmlns="http://www.w3.org/2000/svg" width="140px" height="30px" viewBox="0 0 1024 1024" style="fill-rule:evenodd">
<defs>
  <linearGradient id="grad_16" x1="867.85" y1="-16.6089" x2="893.907" y2="-17.1076" gradientUnits="userSpaceOnUse">
    <stop offset="0" stop-color="rgb(44,53,59)"/>
    <stop offset="0.15" stop-color="rgb(45,55,62)"/>
    <stop offset="0.85" stop-color="rgb(45,55,62)"/>
    <stop offset="1" stop-color="rgb(42,51,59)"/>
  </linearGradient>
  <radialGradient id="radgrad_15" cx="843.195" cy="492.875" fx="497.876" fy="492.033" r="363.636" gradientUnits="userSpaceOnUse" gradientTransform="matrix(1 -0 -0 1 0 0)">
    <stop offset="0" stop-color="rgb(45,54,60)"/>
    <stop offset="0.000370451" stop-color="rgb(45,54,60)"/>
    <stop offset="0.913076" stop-color="rgb(45,55,62)"/>
    <stop offset="0.956538" stop-color="rgb(44,54,61)"/>
    <stop offset="1" stop-color="rgb(42,51,59)"/>
  </radialGradient>
</defs>
<path d="M 121.054 492.655 C 122.452 483.553, 128.153 472.81, 135.464 465.499 C 138.92 462.043, 142.705 458.911, 143.874 458.54 C 145.766 457.939, 146 457.121, 146 451.093 C 146 442.839, 148.991 430.653, 152.728 423.678 C 156.553 416.54, 167.248 406.105, 174.171 402.758 C 181.555 399.187, 190.111 397, 196.693 397 C 198.451 397, 200.209 397, 201.966 397 C 202.826 395.303, 203.686 393.607, 204.546 391.91 C 209.643 381.85, 218.881 373.881, 230.74 369.315 C 236.345 367.156, 239.123 366.716, 247 366.738 C 257.737 366.767, 264.883 368.877, 273.418 374.537 C 275.057 375.624, 276.696 376.711, 278.335 377.798 C 280.03 376.674, 281.724 375.551, 283.418 374.428 C 306.394 359.192, 338.069 366.976, 351.876 391.25 C 352.966 393.167, 354.057 395.083, 355.147 397 C 356.824 397, 358.502 397, 360.179 397 C 381.775 397, 402.609 413.813, 408.515 436.008 C 409.319 439.028, 409.982 444.609, 409.988 448.408 C 409.992 450.711, 409.996 453.014, 410 455.317 C 412.25 457.561, 414.5 459.806, 416.75 462.05 C 429.437 474.707, 434.944 487.353, 435.772 505.735 C 436.159 514.341, 435.871 518.67, 434.541 524.235 C 431.275 537.902, 423.266 550.628, 413.548 557.593 C 411.731 558.895, 409.913 560.198, 408.096 561.5 C 408.08 563.538, 408.064 565.576, 408.048 567.614 C 407.933 582.322, 403.286 593.866, 393.575 603.572 C 384.48 612.662, 374.2 616.925, 361.25 616.976 C 359.167 616.984, 357.083 616.992, 355 617 C 355 623.833, 355 630.667, 355 637.5 C 355 644.333, 355 651.167, 355 658 C 350.359 658, 345.717 658, 341.076 658 C 336.435 658, 331.794 658, 327.152 658 C 320.731 648.917, 314.31 639.833, 307.888 630.75 C 297.293 615.763, 287.272 601.588, 285.619 599.25 C 284.618 597.833, 283.616 596.417, 282.615 595 C 276.763 594.981, 270.91 594.962, 265.057 594.942 C 251.832 594.899, 245.876 594.461, 240.919 593.167 C 224.26 588.818, 210.415 574.797, 205.822 557.624 C 205.41 556.083, 204.997 554.541, 204.585 553 C 198.738 552.997, 192.89 552.995, 187.043 552.992 C 177.394 552.988, 166.575 552.529, 163 551.971 C 155.059 550.733, 143.949 545.467, 137.733 539.996 C 125.063 528.844, 118.399 509.929, 121.054 492.655 Z M 132.192 495.043 C 129.341 513.312, 138.51 530.136, 155.777 538.315 C 158.018 539.377, 160.259 540.438, 162.5 541.5 C 169.396 541.612, 176.292 541.724, 183.188 541.837 C 190.085 541.949, 196.981 542.061, 203.877 542.173 C 204.085 540.894, 204.293 539.615, 204.501 538.337 C 206.362 526.886, 214.206 512.339, 221.732 506.38 C 233.082 497.394, 238.097 495.787, 257 495.08 C 262.167 494.887, 267.333 494.693, 272.5 494.5 C 272.586 476.782, 272.672 459.064, 272.759 441.346 C 272.845 423.628, 272.931 405.91, 273.017 388.192 C 271.931 387.274, 270.845 386.356, 269.759 385.438 C 256.103 373.896, 234.055 375.18, 220.954 388.281 C 217.264 391.972, 212 400.168, 212 402.224 C 212 402.758, 216.941 411.417, 222.979 421.465 C 226.639 427.555, 230.299 433.645, 233.958 439.735 C 235.503 439.909, 237.048 440.083, 238.593 440.258 C 257.515 442.39, 257.882 469.96, 239.013 471.773 C 229.518 472.685, 222 466.033, 222 456.718 C 222 454.069, 222.665 450.614, 223.479 449.041 C 224.935 446.226, 224.781 445.887, 213.61 427.341 C 209.828 421.06, 206.045 414.78, 202.263 408.5 C 199.969 408.536, 197.675 408.572, 195.381 408.608 C 185.865 408.756, 178.404 411.806, 171.168 418.505 C 167.998 421.44, 164.203 426.048, 162.735 428.745 C 159.596 434.514, 157 443.824, 157 449.317 C 157 452.641, 157.257 453.106, 158.75 452.48 C 159.712 452.076, 168.938 451.519, 179.25 451.242 C 185.5 451.074, 191.75 450.906, 198 450.738 C 198 452.615, 198 454.492, 198 456.369 C 198 458.246, 198 460.123, 198 462 C 192.583 462.005, 187.167 462.01, 181.75 462.015 C 172.812 462.024, 164.86 462.435, 164.079 462.93 C 162.945 463.647, 163.802 465.315, 168.308 471.165 C 179.186 485.284, 178.218 484.45, 183.354 484.135 C 195.805 483.369, 204.597 497.95, 197.75 508.01 C 194.004 513.514, 190.611 515.429, 184.599 515.429 C 173.237 515.429, 166.445 506.065, 169.331 494.379 C 170.045 491.491, 169.384 490.352, 160.471 479.118 C 157.261 475.071, 154.05 471.024, 150.84 466.978 C 149.918 467.634, 148.996 468.291, 148.074 468.947 C 140.06 474.654, 133.757 485.009, 132.192 495.043 Z M 216.014 537.176 C 212.487 553.988, 222.411 573.198, 238.5 580.702 C 240.5 581.634, 242.5 582.567, 244.5 583.5 C 256.626 583.603, 268.753 583.705, 280.879 583.808 C 312.099 584.072, 317.18 583.913, 316.71 582.686 C 316.408 581.899, 315.849 579.173, 315.467 576.628 C 315.236 575.085, 315.004 573.543, 314.773 572 C 316.601 572, 318.429 572, 320.256 572 C 322.084 572, 323.912 572, 325.74 572 C 326.12 573.917, 326.5 575.833, 326.88 577.75 C 329.049 588.688, 336.356 597.985, 346.864 603.178 C 350.703 605.075, 353.134 605.472, 361 605.484 C 369.368 605.498, 371.17 605.171, 376.125 602.738 C 379.218 601.219, 383.862 597.717, 386.444 594.956 C 392.761 588.203, 395.842 581.167, 396.646 571.662 C 396.862 569.108, 397.078 566.554, 397.293 564 C 390.745 564, 384.196 564, 377.647 564 C 371.098 564, 364.549 564, 358 564 C 358 562.167, 358 560.333, 358 558.5 C 358 556.667, 358 554.833, 358 553 C 365.19 553, 372.38 553, 379.57 553 C 386.76 553, 393.95 553, 401.14 553 C 402.587 552.005, 404.033 551.009, 405.48 550.014 C 411.311 546.002, 416.502 539.764, 420.055 532.5 C 427.145 518.004, 426.623 497.454, 418.793 482.763 C 415.105 475.844, 406.413 466.128, 405.178 467.544 C 404.719 468.07, 400.185 474.277, 395.102 481.339 C 392.022 485.619, 388.941 489.898, 385.861 494.178 C 386.265 495.756, 386.67 497.335, 387.075 498.914 C 388.59 504.828, 387.669 510.051, 384.432 513.899 C 381.137 517.814, 374.175 520.443, 369.207 519.649 C 367.932 519.445, 366.658 519.241, 365.383 519.038 C 360.903 524.341, 356.422 529.643, 351.942 534.946 C 347.461 540.249, 342.981 545.552, 338.5 550.855 C 330.111 550.879, 321.721 550.903, 313.332 550.927 C 304.942 550.952, 296.553 550.976, 288.163 551 C 287.436 552.177, 286.708 553.354, 285.981 554.531 C 283.376 558.746, 277.47 562, 272.426 562 C 264.152 562, 257 554.471, 257 545.762 C 257 538.167, 263.086 531.335, 270.768 530.304 C 275.952 529.609, 283.25 532.922, 285.71 537.087 C 286.284 538.058, 286.858 539.029, 287.431 540 C 295.003 540, 302.575 540, 310.147 540 C 317.719 540, 325.291 540, 332.863 540 C 336.973 535.25, 341.084 530.5, 345.194 525.75 C 357.431 511.609, 357.518 511.472, 356.623 507.901 C 354.045 497.617, 361.665 488, 372.391 488 C 373.887 488, 375.384 488, 376.881 488 C 379.65 484.16, 382.42 480.32, 385.19 476.48 C 389.761 470.145, 393.65 464.52, 393.833 463.98 C 394.043 463.364, 387.459 463, 376.083 463 C 370.056 463, 364.028 463, 358 463 C 358 461.167, 358 459.333, 358 457.5 C 358 455.667, 358 453.833, 358 452 C 364.878 452, 371.756 452, 378.634 452 C 385.512 452, 392.391 452, 399.269 452 C 399.102 449.664, 398.934 447.327, 398.767 444.991 C 397.399 425.875, 380.716 409.384, 361.611 408.266 C 359.241 408.127, 356.87 407.988, 354.5 407.849 C 351.858 411.624, 349.216 415.399, 346.574 419.175 C 342.215 425.404, 337.335 432.366, 335.729 434.646 C 332.885 438.686, 332.841 438.932, 334.031 444.249 C 335.581 451.172, 334.251 455.694, 329.421 459.936 C 325.312 463.543, 322.378 464.415, 316.559 463.76 C 308.247 462.823, 302.409 455.5, 303.223 447.032 C 304.059 438.329, 310.177 432.79, 319.163 432.599 C 320.723 432.566, 322.283 432.533, 323.842 432.5 C 327.236 427.689, 330.629 422.879, 334.023 418.068 C 339.622 410.13, 344.395 403.133, 344.631 402.519 C 345.301 400.773, 337.721 389.741, 333.397 386.168 C 319.79 374.924, 301.297 374.588, 286.781 385.32 C 285.854 386.006, 284.927 386.691, 284 387.376 C 284 405.313, 284 423.251, 284 441.188 C 284 459.125, 284 477.063, 284 495 C 287.417 494.987, 290.833 494.974, 294.25 494.961 C 297.667 494.949, 301.083 494.936, 304.5 494.923 C 305.167 493.88, 305.833 492.838, 306.5 491.795 C 309.829 486.588, 313.406 484.571, 319.311 484.571 C 328.821 484.571, 335.231 490.754, 335.231 499.926 C 335.231 508.62, 329.831 514.814, 321.425 515.761 C 315.742 516.402, 311.74 514.682, 307.568 509.808 C 306.45 508.503, 305.333 507.197, 304.216 505.892 C 293.93 505.993, 283.644 506.095, 273.358 506.196 C 242.889 506.496, 242.437 506.531, 237.5 508.961 C 227.318 513.974, 218.434 525.64, 216.014 537.176 Z M 308.901 595 C 304.624 595, 300.347 595, 296.07 595 C 302.152 603.583, 308.234 612.167, 314.316 620.75 C 320.398 629.333, 326.481 637.917, 332.563 646.5 C 334.469 646.6, 336.375 646.7, 338.281 646.8 C 340.188 646.9, 342.094 647, 344 647.1 C 344 641.59, 344 636.08, 344 630.57 C 344 625.06, 344 619.551, 344 614.041 C 342.75 613.4, 341.5 612.76, 340.25 612.12 C 334.809 609.333, 329.279 604.686, 325.254 599.52 C 324.08 598.013, 322.906 596.507, 321.732 595 C 317.455 595, 313.178 595, 308.901 595 Z " fill="rgb(45,54,60)" />
<path d="M 589.25 456.474 C 590.487 456.164, 595.304 456.043, 599.952 456.205 C 602.77 456.303, 605.587 456.402, 608.405 456.5 C 614.504 467.333, 620.603 478.167, 626.703 489 C 636.766 506.875, 645.465 521.5, 646.032 521.5 C 646.6 521.5, 649.412 517.176, 652.282 511.892 C 655.152 506.607, 663.125 492.115, 670 479.688 C 674.167 472.156, 678.333 464.625, 682.5 457.093 C 683.833 456.89, 685.167 456.686, 686.5 456.483 C 688.7 456.147, 693.65 456.014, 697.5 456.186 C 699.833 456.291, 702.167 456.395, 704.5 456.5 C 704.586 474.91, 704.672 493.319, 704.758 511.729 C 704.845 530.138, 704.931 548.548, 705.017 566.958 C 704.264 567.146, 703.511 567.334, 702.758 567.522 C 701.516 567.832, 696.225 567.954, 691 567.793 C 687.833 567.695, 684.667 567.598, 681.5 567.5 C 681.333 556.667, 681.167 545.833, 681 535 C 680.833 524.167, 680.667 513.333, 680.5 502.5 C 676.707 509.333, 672.914 516.167, 669.121 523 C 662.863 534.275, 656.193 546.088, 654.299 549.25 C 653.151 551.167, 652.003 553.083, 650.855 555 C 649.05 555, 647.245 555, 645.44 555 C 639.004 555, 640.804 557.365, 623.536 526.228 C 617.048 514.529, 611.348 504.715, 610.87 504.419 C 610.384 504.119, 610 518.025, 610 535.941 C 610 546.627, 610 557.314, 610 568 C 606.694 568, 603.388 568, 600.082 568 C 594.627 568, 589.452 567.727, 588.582 567.393 C 587.166 566.85, 587 561.027, 587 511.912 C 587 493.621, 587 475.329, 587 457.038 C 587.75 456.85, 588.5 456.662, 589.25 456.474 Z " fill="rgb(46,55,61)" />
<path d="M 867.112 567.282 C 866.685 567.712, 860.774 567.937, 853.976 567.782 C 849.856 567.688, 845.736 567.594, 841.616 567.5 C 839.975 563.411, 838.333 559.322, 836.691 555.233 C 835.05 551.144, 833.408 547.055, 831.766 542.966 C 823.574 543.055, 815.381 543.144, 807.188 543.233 C 798.996 543.322, 790.803 543.411, 782.61 543.5 C 781.148 547.167, 779.686 550.833, 778.224 554.5 C 775.811 560.55, 773.433 565.918, 772.939 566.43 C 772.267 567.125, 747 568.101, 747 567.432 C 747 567.363, 747.648 566.001, 748.44 564.404 C 750.032 561.193, 781.263 488.47, 789.196 469.5 C 791.957 462.9, 794.729 457.169, 795.357 456.765 C 795.986 456.361, 801.772 456.024, 808.215 456.015 C 818.582 456.002, 820.043 456.212, 820.916 457.842 C 821.701 459.311, 852.367 530.197, 865.11 560 C 866.638 563.575, 867.539 566.852, 867.112 567.282 Z M 748.799 565.624 C 748.399 565.871, 747.999 566.119, 747.599 566.366 C 747.999 566.5, 748.399 566.633, 748.799 566.766 C 749.46 566.987, 750 566.653, 750 566.024 C 750 565.39, 749.466 565.212, 748.799 565.624 Z M 798.802 503.297 C 796.212 509.698, 793.621 516.099, 791.031 522.5 C 796.359 522.592, 801.687 522.683, 807.016 522.775 C 815.807 522.926, 823.003 522.701, 823.006 522.275 C 823.02 520.406, 807.739 482.928, 807.187 483.479 C 806.85 483.817, 803.076 492.735, 798.802 503.297 Z " fill="rgb(46,55,61)" />
<path d="M 505.242 456.264 C 528.977 456.694, 535.538 457.118, 540 458.509 C 548.317 461.101, 554.051 464.369, 558.702 469.166 C 564.922 475.581, 567.294 481.707, 567.805 492.677 C 568.587 509.461, 563.155 519.622, 548.656 528.5 C 547.247 529.362, 548.654 532.046, 558.873 548 C 565.392 558.175, 570.535 566.838, 570.303 567.25 C 570.072 567.662, 564.316 568, 557.512 568 C 548.456 568, 544.781 567.638, 543.792 566.649 C 543.048 565.906, 538.179 558.272, 532.97 549.685 C 529.813 544.481, 526.657 539.277, 523.5 534.073 C 519.75 534.061, 516 534.049, 512.25 534.037 C 508.5 534.024, 504.75 534.012, 501 534 C 501 539.494, 501 544.987, 501 550.481 C 501 569.825, 502.315 568.255, 486.5 567.792 C 483.167 567.695, 479.833 567.597, 476.5 567.5 C 476.414 548.872, 476.328 530.245, 476.242 511.617 C 476.155 492.989, 476.069 474.362, 475.983 455.734 C 485.736 455.911, 495.489 456.087, 505.242 456.264 Z M 541.21 486 C 540.138 484.035, 537.371 481.403, 534.901 480 C 530.857 477.703, 529.303 477.472, 515.75 477.158 C 510.833 477.044, 505.917 476.93, 501 476.817 C 501 482.847, 501 488.878, 501 494.908 C 501 500.939, 501 506.969, 501 513 C 505.728 513, 510.456 513, 515.184 513 C 531.21 513, 536.015 511.597, 540.223 505.687 C 543.363 501.277, 543.883 490.903, 541.21 486 Z " fill="url(#radgrad_15)" />
<path d="M 879.667 456.667 C 880.892 455.442, 901.517 455.917, 902.8 457.2 C 903.704 458.104, 904 471.782, 904 512.621 C 904 530.694, 904 548.768, 904 566.841 C 902.955 567.071, 901.911 567.3, 900.866 567.529 C 899.142 567.908, 893.517 567.902, 888.366 567.516 C 885.244 567.281, 882.122 567.047, 879 566.813 C 879 548.567, 879 530.32, 879 512.073 C 879 481.966, 879.3 457.033, 879.667 456.667 Z " fill="url(#grad_16)" />
<path d="M 132.192 495.043 C 133.757 485.009, 140.06 474.654, 148.074 468.947 C 148.996 468.291, 149.918 467.634, 150.84 466.978 C 154.05 471.024, 157.261 475.071, 160.471 479.118 C 169.384 490.352, 170.045 491.491, 169.331 494.379 C 166.445 506.065, 173.237 515.429, 184.599 515.429 C 190.611 515.429, 194.004 513.514, 197.75 508.01 C 204.597 497.95, 195.805 483.369, 183.354 484.135 C 178.218 484.45, 179.186 485.284, 168.308 471.165 C 163.802 465.315, 162.945 463.647, 164.079 462.93 C 164.86 462.435, 172.812 462.024, 181.75 462.015 C 187.167 462.01, 192.583 462.005, 198 462 C 198 460.123, 198 458.246, 198 456.369 C 198 454.492, 198 452.615, 198 450.738 C 191.75 450.906, 185.5 451.074, 179.25 451.242 C 168.938 451.519, 159.712 452.076, 158.75 452.48 C 157.257 453.106, 157 452.641, 157 449.317 C 157 443.824, 159.596 434.514, 162.735 428.745 C 164.203 426.048, 167.998 421.44, 171.168 418.505 C 178.404 411.806, 185.865 408.756, 195.381 408.608 C 197.675 408.572, 199.969 408.536, 202.263 408.5 C 206.045 414.78, 209.828 421.06, 213.61 427.341 C 224.781 445.887, 224.935 446.226, 223.479 449.041 C 222.665 450.614, 222 454.069, 222 456.718 C 222 466.033, 229.518 472.685, 239.013 471.773 C 257.882 469.96, 257.515 442.39, 238.593 440.258 C 237.048 440.083, 235.503 439.909, 233.958 439.735 C 230.299 433.645, 226.639 427.555, 222.979 421.465 C 216.941 411.417, 212 402.758, 212 402.224 C 212 400.168, 217.264 391.972, 220.954 388.281 C 234.055 375.18, 256.103 373.896, 269.759 385.438 C 270.845 386.356, 271.931 387.274, 273.017 388.192 C 272.931 405.91, 272.845 423.628, 272.759 441.346 C 272.672 459.064, 272.586 476.782, 272.5 494.5 C 267.333 494.693, 262.167 494.887, 257 495.08 C 238.097 495.787, 233.082 497.394, 221.732 506.38 C 214.206 512.339, 206.362 526.886, 204.501 538.337 C 204.293 539.615, 204.085 540.894, 203.877 542.173 C 196.981 542.061, 190.085 541.949, 183.188 541.837 C 176.292 541.724, 169.396 541.612, 162.5 541.5 C 160.259 540.438, 158.018 539.377, 155.777 538.315 C 138.51 530.136, 129.341 513.312, 132.192 495.043 Z " fill="rgb(255,255,255)" />
<path d="M 216.014 537.176 C 218.434 525.64, 227.318 513.974, 237.5 508.961 C 242.437 506.531, 242.889 506.496, 273.358 506.196 C 283.644 506.095, 293.93 505.993, 304.216 505.892 C 305.333 507.197, 306.45 508.503, 307.568 509.808 C 311.74 514.682, 315.742 516.402, 321.425 515.761 C 329.831 514.814, 335.231 508.62, 335.231 499.926 C 335.231 490.754, 328.821 484.571, 319.311 484.571 C 313.406 484.571, 309.829 486.588, 306.5 491.795 C 305.833 492.838, 305.167 493.88, 304.5 494.923 C 301.083 494.936, 297.667 494.949, 294.25 494.961 C 290.833 494.974, 287.417 494.987, 284 495 C 284 477.063, 284 459.125, 284 441.188 C 284 423.251, 284 405.313, 284 387.376 C 284.927 386.691, 285.854 386.006, 286.781 385.32 C 301.297 374.588, 319.79 374.924, 333.397 386.168 C 337.721 389.741, 345.301 400.773, 344.631 402.519 C 344.395 403.133, 339.622 410.13, 334.023 418.068 C 330.629 422.879, 327.236 427.689, 323.842 432.5 C 322.283 432.533, 320.723 432.566, 319.163 432.599 C 310.177 432.79, 304.059 438.329, 303.223 447.032 C 302.409 455.5, 308.247 462.823, 316.559 463.76 C 322.378 464.415, 325.312 463.543, 329.421 459.936 C 334.251 455.694, 335.581 451.172, 334.031 444.249 C 332.841 438.932, 332.885 438.686, 335.729 434.646 C 337.335 432.366, 342.215 425.404, 346.574 419.175 C 349.216 415.399, 351.858 411.624, 354.5 407.849 C 356.87 407.988, 359.241 408.127, 361.611 408.266 C 380.716 409.384, 397.399 425.875, 398.767 444.991 C 398.934 447.327, 399.102 449.664, 399.269 452 C 392.391 452, 385.512 452, 378.634 452 C 371.756 452, 364.878 452, 358 452 C 358 453.833, 358 455.667, 358 457.5 C 358 459.333, 358 461.167, 358 463 C 364.028 463, 370.056 463, 376.083 463 C 387.459 463, 394.043 463.364, 393.833 463.98 C 393.65 464.52, 389.761 470.145, 385.19 476.48 C 382.42 480.32, 379.65 484.16, 376.881 488 C 375.384 488, 373.887 488, 372.391 488 C 361.665 488, 354.045 497.617, 356.623 507.901 C 357.518 511.472, 357.431 511.609, 345.194 525.75 C 341.084 530.5, 336.973 535.25, 332.863 540 C 325.291 540, 317.719 540, 310.147 540 C 302.575 540, 295.003 540, 287.431 540 C 286.858 539.029, 286.284 538.058, 285.71 537.087 C 283.25 532.922, 275.952 529.609, 270.768 530.304 C 263.086 531.335, 257 538.167, 257 545.762 C 257 554.471, 264.152 562, 272.426 562 C 277.47 562, 283.376 558.746, 285.981 554.531 C 286.708 553.354, 287.436 552.177, 288.163 551 C 296.553 550.976, 304.942 550.952, 313.332 550.927 C 321.721 550.903, 330.111 550.879, 338.5 550.855 C 342.981 545.552, 347.461 540.249, 351.942 534.946 C 356.422 529.643, 360.903 524.341, 365.383 519.038 C 366.658 519.241, 367.932 519.445, 369.207 519.649 C 374.175 520.443, 381.137 517.814, 384.432 513.899 C 387.669 510.051, 388.59 504.828, 387.075 498.914 C 386.67 497.335, 386.265 495.756, 385.861 494.178 C 388.941 489.898, 392.022 485.619, 395.102 481.339 C 400.185 474.277, 404.719 468.07, 405.178 467.544 C 406.413 466.128, 415.105 475.844, 418.793 482.763 C 426.623 497.454, 427.145 518.004, 420.055 532.5 C 416.502 539.764, 411.311 546.002, 405.48 550.014 C 404.033 551.009, 402.587 552.005, 401.14 553 C 393.95 553, 386.76 553, 379.57 553 C 372.38 553, 365.19 553, 358 553 C 358 554.833, 358 556.667, 358 558.5 C 358 560.333, 358 562.167, 358 564 C 364.549 564, 371.098 564, 377.647 564 C 384.196 564, 390.745 564, 397.293 564 C 397.078 566.554, 396.862 569.108, 396.646 571.662 C 395.842 581.167, 392.761 588.203, 386.444 594.956 C 383.862 597.717, 379.218 601.219, 376.125 602.738 C 371.17 605.171, 369.368 605.498, 361 605.484 C 353.134 605.472, 350.703 605.075, 346.864 603.178 C 336.356 597.985, 329.049 588.688, 326.88 577.75 C 326.5 575.833, 326.12 573.917, 325.74 572 C 323.912 572, 322.084 572, 320.256 572 C 318.429 572, 316.601 572, 314.773 572 C 315.004 573.543, 315.236 575.085, 315.467 576.628 C 315.849 579.173, 316.408 581.899, 316.71 582.686 C 317.18 583.913, 312.099 584.072, 280.879 583.808 C 268.753 583.705, 256.626 583.603, 244.5 583.5 C 242.5 582.567, 240.5 581.634, 238.5 580.702 C 222.411 573.198, 212.487 553.988, 216.014 537.176 Z " fill="rgb(255,255,255)" />
<path d="M 308.901 595 C 313.178 595, 317.455 595, 321.732 595 C 322.906 596.507, 324.08 598.013, 325.254 599.52 C 329.279 604.686, 334.809 609.333, 340.25 612.12 C 341.5 612.76, 342.75 613.4, 344 614.041 C 344 619.551, 344 625.06, 344 630.57 C 344 636.08, 344 641.59, 344 647.1 C 342.094 647, 340.188 646.9, 338.281 646.8 C 336.375 646.7, 334.469 646.6, 332.563 646.5 C 326.481 637.917, 320.398 629.333, 314.316 620.75 C 308.234 612.167, 302.152 603.583, 296.07 595 C 300.347 595, 304.624 595, 308.901 595 Z " fill="rgb(254,254,254)" />
<path d="M 541.21 486 C 543.883 490.903, 543.363 501.277, 540.223 505.687 C 536.015 511.597, 531.21 513, 515.184 513 C 510.456 513, 505.728 513, 501 513 C 501 506.969, 501 500.939, 501 494.908 C 501 488.878, 501 482.847, 501 476.817 C 505.917 476.93, 510.833 477.044, 515.75 477.158 C 529.303 477.472, 530.857 477.703, 534.901 480 C 537.371 481.403, 540.138 484.035, 541.21 486 Z " fill="rgb(255,255,255)" />
<path d="M 798.802 503.297 C 803.076 492.735, 806.85 483.817, 807.187 483.479 C 807.739 482.928, 823.02 520.406, 823.006 522.275 C 823.003 522.701, 815.807 522.926, 807.016 522.775 C 801.687 522.683, 796.359 522.592, 791.031 522.5 C 793.621 516.099, 796.212 509.698, 798.802 503.297 Z " fill="rgb(254,254,254)" />
<path d="M 748.799 565.624 C 749.466 565.212, 750 565.39, 750 566.024 C 750 566.653, 749.46 566.987, 748.799 566.766 C 748.399 566.633, 747.999 566.5, 747.599 566.366 C 747.999 566.119, 748.399 565.871, 748.799 565.624 Z " fill="rgb(21,29,32)" />
</svg>
